HIERARCHY
ROOT Hips
{
	OFFSET 0.000000 0.000000 0.000000
	CHANNELS 6 Xposition Yposition Zposition Zrotation Yrotation Xrotation 
	JOINT LHipJoint
	{
		OFFSET 0.000000 0.000000 0.000000
		CHANNELS 3 Zrotation Yrotation Xrotation
		JOINT LeftUpLeg
		{
			OFFSET 1.363060 -1.794630 0.839290
			CHANNELS 3 Zrotation Yrotation Xrotation
			JOINT LeftLeg
			{
				OFFSET 2.448110 -6.726130 0.000000
				CHANNELS 3 Zrotation Yrotation Xrotation
				JOINT LeftFoot
				{
					OFFSET 2.562200 -7.039590 0.000000
					CHANNELS 3 Zrotation Yrotation Xrotation
					JOINT LeftToeBase
					{
						OFFSET 0.157640 -0.433110 2.322550
						CHANNELS 3 Zrotation Yrotation Xrotation
						End Site
						{
							OFFSET 0.000000 0.000000 0.000000
						}
					}
				}
			}
		}
	}
	JOINT RHipJoint
	{
		OFFSET 0.000000 0.000000 0.000000
		CHANNELS 3 Zrotation Yrotation Xrotation
		JOINT RightUpLeg
		{
			OFFSET -1.305520 -1.794630 0.839290
			CHANNELS 3 Zrotation Yrotation Xrotation
			JOINT RightLeg
			{
				OFFSET -2.542530 -6.985550 0.000000
				CHANNELS 3 Zrotation Yrotation Xrotation
				JOINT RightFoot
				{
					OFFSET -2.568260 -7.056230 0.000000
					CHANNELS 3 Zrotation Yrotation Xrotation
					JOINT RightToeBase
					{
						OFFSET -0.164730 -0.452590 2.363150
						CHANNELS 3 Zrotation Yrotation Xrotation
						End Site
						{
							OFFSET 0.000000 0.000000 0.000000
						}
					}
				}
			}
		}
	}
}
MOTION
Frames: 11
Frame Time: 0.008333
3.938407 16.966585 3.291547 2.621388 16.622230 13.230073 -11.982950 4.732379 -1.450564 -4.812324 19.071446 -0.672949 -0.621756 1.344916 23.451096 1.738872 12.753896 15.804825 4.558699 0.000000 -83.441800 7.564213 -1.022342 4.017970 16.965390 1.979271 -26.100213 2.906296 3.086463 -6.746738 -3.115142 -14.218164 -4.499975 -2.337200 -0.000001 -29.343701
3.990420 16.982058 3.434981 2.102770 16.217114 13.027007 -12.237417 4.675636 -1.377794 -4.030613 18.933202 -1.306840 -0.439665 1.437548 25.211642 1.827533 12.694854 17.731064 4.809400 -0.000000 -83.571900 7.341959 -1.141468 4.036283 17.559486 2.314131 -25.405461 3.011170 3.081582 -6.725418 -3.052166 -14.199013 -3.965598 -2.487401 0.000000 -30.040800
4.037884 16.998024 3.576966 1.613014 15.776602 12.834223 -12.462873 4.603211 -1.307869 -3.324835 18.779920 -2.030097 -0.273056 1.521699 27.100353 1.932208 12.645686 19.687602 5.056100 0.000000 -82.707200 7.140193 -1.253102 4.031128 18.160091 2.552998 -24.768013 3.120342 3.060065 -6.572436 -2.977687 -14.077141 -3.526324 -2.591900 -0.000000 -30.671600
4.080362 17.013883 3.716863 1.161831 15.305649 12.648498 -12.653996 4.515631 -1.245714 -2.703662 18.613259 -2.826055 -0.128685 1.598263 29.100472 2.049047 12.630328 21.572331 5.297801 0.000000 -80.789299 6.963239 -1.354836 4.001323 18.747852 2.701437 -24.170498 3.229599 3.022855 -6.297967 -2.892452 -13.847704 -3.205781 -2.640600 0.000000 -31.151200
4.117157 17.029187 3.854398 0.767197 14.812331 12.476513 -12.802944 4.416602 -1.193488 -2.190564 18.427076 -3.689166 -0.011294 1.670394 31.197013 2.171589 12.682571 23.261224 5.539400 -0.000000 -77.726200 6.818647 -1.444050 3.950516 19.292005 2.767708 -23.611231 3.333233 2.971764 -5.918171 -2.797995 -13.511046 -3.021214 -2.628500 -0.000001 -31.429000
4.148349 17.043585 3.989093 0.429524 14.306015 12.312245 -12.910609 4.309038 -1.157173 -1.776643 18.230154 -4.607103 0.078932 1.743869 33.373940 2.292113 12.826542 24.632230 5.782900 0.000000 -73.597301 6.705863 -1.519246 3.881878 19.781024 2.770175 -23.062936 3.427612 2.912338 -5.477210 -2.697819 -13.088694 -2.969333 -2.561500 -0.000001 -31.453600
4.174216 17.056951 4.120625 0.144671 13.796709 12.152161 -12.980176 4.195093 -1.139549 -1.451117 18.020432 -5.567493 0.146821 1.823654 35.599597 2.406879 13.104668 25.608509 6.046100 0.000000 -68.815100 6.622231 -1.579192 3.799907 20.209054 2.731162 -22.501275 3.510092 2.851447 -5.027060 -2.596546 -12.612000 -3.035222 -2.451800 0.000000 -31.192000
4.194967 17.069220 4.248985 -0.085802 13.292811 12.000058 -13.013559 4.078565 -1.139963 -1.213350 17.792014 -6.570219 0.198701 1.914329 37.854175 2.511915 13.534756 26.119432 6.330300 0.000000 -63.648201 6.567277 -1.623196 3.711053 20.566358 2.668293 -21.921069 3.578531 2.794412 -4.604698 -2.498030 -12.106446 -3.204125 -2.310900 0.000000 -30.651900
4.211116 17.080538 4.374136 -0.267742 12.800743 11.856912 -13.016137 3.961225 -1.156201 -1.053067 17.535636 -7.610122 0.242222 2.018039 40.110417 2.606479 14.121713 26.138924 6.629900 0.000001 -58.378600 6.537075 -1.651558 3.619965 20.855161 2.598237 -21.314507 3.632746 2.746252 -4.245651 -2.405787 -11.599722 -3.452328 -2.152700 0.000000 -29.858600
4.223314 17.091142 4.496219 -0.407155 12.323756 11.725524 -12.993162 3.842958 -1.182022 -0.964897 17.228898 -8.677622 0.284643 2.132683 42.327707 2.695278 14.880610 25.707809 6.949600 0.000000 -53.611900 6.528017 -1.664954 3.529285 21.079963 2.531894 -20.680901 3.673314 2.709997 -3.972731 -2.322181 -11.114090 -3.753934 -1.989000 -0.000000 -28.857399
4.232162 17.101346 4.615464 -0.508076 11.862170 11.609751 -12.949220 3.724089 -1.210685 -0.945191 16.853988 -9.766323 0.330283 2.254996 44.474886 2.781578 15.792379 24.873442 7.271200 -0.000000 -49.628100 6.537432 -1.664912 3.440859 21.245142 2.474123 -20.028241 3.701269 2.686182 -3.791749 -2.247988 -10.662369 -4.085325 -1.828500 0.000000 -27.717000
